# xmcd
#
# Track frame offsets:
#	150
#	15412
#	34416
#	49721
#	61375
#	72477
#	86134
#	96604
#	108201
#	123185
#	139815
#	155895
#	169922
#	185239
#	200343
#	212437
#	224259
#	236949
#	248521
#	261263
#	270137
#	284354
#	297994
#	308566
#	320563
#	338600
#
# Disc length: 4715 seconds
#
# Revision: 0
# Processed by: cddbd v1.5.2PL0 Copyright (c) Steve Scherf et al.
# Submitted via: dBpowerAMP V4.0
#
DISCID=8e12691a
DTITLE=Franki Valli and the Four Seasons - The Difinitive
DYEAR=1900
DGENRE=Blues
TTITLE0=Sherry
TTITLE1=Big Girls Don't Cry
TTITLE2=Walk Like a Man
TTITLE3=Candy Girl
TTITLE4=Marlena
TTITLE5=New Mexican Rose
TTITLE6=Dawn (Go Away)
TTITLE7=Stay
TTITLE8=Rag Doll
TTITLE9=Silence Is Golden
TTITLE10=Bye Bye Baby
TTITLE11=Toy Soldier
TTITLE12=Girl Come Running
TTITLE13=Lets Hang On
TTITLE14=Working My Way Back To You
TTITLE15=You're Ready Now
TTITLE16=I've Got You Under My Skin
TTITLE17=Tell It To The Rain
TTITLE18=Can't Take My Eyes Off You
TTITLE19=Will You Love Me Tomorrow
TTITLE20=My Eyes Adored You
TTITLE21=Who Loves You
TTITLE22=December 1963
TTITLE23=Silver Star
TTITLE24=Grease
TTITLE25=The Night
EXTD=
EXTT0=
EXTT1=
EXTT2=
EXTT3=
EXTT4=
EXTT5=
EXTT6=
EXTT7=
EXTT8=
EXTT9=
EXTT10=
EXTT11=
EXTT12=
EXTT13=
EXTT14=
EXTT15=
EXTT16=
EXTT17=
EXTT18=
EXTT19=
EXTT20=
EXTT21=
EXTT22=
EXTT23=
EXTT24=
EXTT25=
PLAYORDER=
